<svg width="21" height="21" viewBox="0 0 21 21" fill="none" xmlns="http://www.w3.org/2000/svg">
  <path d="M16.6667 0.083252H14.5833V2.16659H16.6667V0.083252ZM2.08333 2.16659H8.33333V4.24992H2.08333V18.8333H16.6667V12.5833H18.75V20.9166H0V2.16659H2.08333ZM6.25 10.4999H4.16667V16.7499H10.4167V14.6666H12.5V12.5833H10.4167V14.6666H6.25V10.4999ZM10.4167 8.41658H8.33333V10.4999H6.25V8.41658H8.33333V6.33325H10.4167V4.24992H12.5V6.33325H10.4167V8.41658ZM12.5 2.16659H14.5833V4.24992H12.5V2.16659ZM16.6667 2.16659H18.75V4.24992H20.8333V6.33325H18.75V8.41658H16.6667V10.4999H14.5833V8.41658H16.6667V6.33325H18.75V4.24992H16.6667V2.16659ZM12.5 10.4999H14.5833V12.5833H12.5V10.4999Z" fill="white" />
</svg>