<svg width="30" height="30" viewBox="0 0 30 30" fill="none" xmlns="http://www.w3.org/2000/svg">
  <path d="M20.625 3.75H9.375V5.625H20.625V3.75Z" fill="white" />
  <path d="M26.25 20.625V9.375H24.375V20.625H26.25Z" fill="white" />
  <path d="M20.625 7.5H22.5V5.625H20.625V7.5Z" fill="white" />
  <path d="M22.5 9.375H24.375V7.5H22.5V9.375Z" fill="white" />
  <path d="M20.625 24.375H22.5V22.5H20.625V24.375Z" fill="white" />
  <path d="M22.5 22.5H24.375V20.625H22.5V22.5Z" fill="white" />
  <path d="M9.375 26.25H20.625V24.375H9.375V26.25Z" fill="white" />
  <path d="M3.75 9.375L3.75 20.625H5.625L5.625 9.375H3.75Z" fill="white" />
  <path d="M9.375 22.5H7.5V24.375H9.375V22.5Z" fill="white" />
  <path d="M7.5 20.625H5.625V22.5H7.5V20.625Z" fill="white" />
  <path d="M7.5 5.625V7.5H9.375V5.625H7.5Z" fill="white" />
  <path d="M5.625 7.5V9.375H7.5V7.5H5.625Z" fill="white" />
  <path d="M10.3125 14.0625H7.5V15.9375H10.3125V14.0625Z" fill="white" />
  <path d="M12.1875 12.1875H10.3125V14.0625H12.1875V12.1875Z" fill="white" />
  <path d="M15.9375 10.3125H12.1875V12.1875H15.9375V10.3125Z" fill="white" />
  <path d="M15.9375 8.4375V10.3125H17.8125V17.8125H14.0625V19.6875H17.8125V21.5625H19.6875V8.4375H15.9375Z" fill="white" />
  <path d="M12.1875 14.0625V15.9375H10.3125V19.6875H12.1875V17.8125H14.0625V14.0625H12.1875Z" fill="white" />
</svg>